# xmcd
#
# Track frame offsets:
# 183
# 11358
# 24558
# 45558
# 56508
# 69758
# 78783
# 92858
# 106233
# 119133
# 133458
# 145533
# 158358
# 172008
# 191883
# 204033
# 222108
# 237483
# 251058
# 264183
# 279858
# 289458
#
# Disc length: 4049 seconds
#
#
# Revision: 0
# Processed by: cddbd v1.5PL3 Copyright (c) Steve Scherf et al.
# Submitted via: FreeRIP 2.53 
#
DISCID=340fcf16
DTITLE=Rob Hoeke Rhythm and Blues Group - The Singles Collection 1
DYEAR=1900
DGENRE=Blues
TTITLE0=Swanee River Boogie
TTITLE1=Boogie Woogie Stomp
TTITLE2=Tony's Blues
TTITLE3=Screamin'
TTITLE4=Down South (Part 1)
TTITLE5=Down South (Part 2)
TTITLE6=Oh, Baby Please
TTITLE7=So Blue, Because Of You
TTITLE8=Margio
TTITLE9=Rigmore
TTITLE10=Rain, Snow And Misery
TTITLE11=When People Talk
TTITLE12=What Is Soul ?
TTITLE13=Down Here
TTITLE14=Babe Don't Go
TTITLE15=Don't Ask Me What I Say
TTITLE16=Drinking On My Bed
TTITLE17=P-Kick Boogie
TTITLE18=Try To Realize
TTITLE19=It Won't Be Long
TTITLE20=For My Little Gringo
TTITLE21=Swinging Clock Boogie
EXTD=Mercury 842 313-2
EXTT0=
EXTT1=
EXTT2=
EXTT3=
EXTT4=
EXTT5=
EXTT6=
EXTT7=
EXTT8=
EXTT9=
EXTT10=
EXTT11=
EXTT12=
EXTT13=
EXTT14=
EXTT15=
EXTT16=
EXTT17=
EXTT18=
EXTT19=
EXTT20=
EXTT21=
PLAYORDER=
